# xmcd
#
# Track frame offsets:
#	150
#	18985
#	32552
#	68074
#	86748
#	111398
#	133066
#	147995
#	166208
#	183683
#	203297
#	221883
#	250214
#	266727
#	283374
#
# Disc length: 3990 seconds
#
# Revision: 1
# Processed by: cddbd v1.4PL0 Copyright (c) Steve Scherf et al.
# Submitted via: CDmax 2.0
#
DISCID=e80f940f
DTITLE=Backporch Tunes - Live
DYEAR=2002
DGENRE=Blues
TTITLE0=No Matter How She Done It
TTITLE1=Perpetual Blues Machine
TTITLE2=Death Don't Have No Mercy
TTITLE3=Don't Sell It
TTITLE4=Guitar Rag
TTITLE5=Fishin' Blues
TTITLE6=Ain't Misbehavin'
TTITLE7=Can't Be Satisfied
TTITLE8=Over To My House
TTITLE9=You've Been A Good Old Wagon
TTITLE10=What I Love
TTITLE11=Kind Hearted Woman Blues
TTITLE12=Ain't Nobodies Business
TTITLE13=Keep Your Hands Off Her
TTITLE14=Flyin' Shoes
EXTD=
EXTT0=
EXTT1=
EXTT2=
EXTT3=
EXTT4=
EXTT5=
EXTT6=
EXTT7=
EXTT8=
EXTT9=
EXTT10=
EXTT11=
EXTT12=
EXTT13=
EXTT14=
PLAYORDER=
